<svg xmlns="http://www.w3.org/2000/svg" xmlns:xlink="http://www.w3.org/1999/xlink" fill="none" version="1.1" width="173" height="119" viewBox="0 0 173 119"><defs><clipPath id="master_svg0_13_0083"><rect x="119" y="0" width="54" height="42" rx="0"/></clipPath><clipPath id="master_svg1_13_0067"><rect x="0" y="8" width="117" height="111" rx="0"/></clipPath></defs><g><g clip-path="url(#master_svg0_13_0083)"><g><path d="M119.48632467,34.521576L127.8487997,35.055752C127.8487997,35.055752,140.199392,40.131668,146.213648,41.965664C148.424566,42.639736,172.91018300000002,32.864372,172.91018300000002,32.864372C172.91018300000002,32.864372,173.364426,9.2170343,172.230099,4.7185321C171.804081,3.0333407,138.391394,0,137.540648,0C136.689901,0,124.957798,8.5951004,124.957798,8.5951004L125.8085456,27.471762C125.8085456,27.471762,122.0103369,31.75914,119.23353851,33.580414C118.81907183,33.852592,118.989734581,34.48978,119.48632467,34.521576Z" fill="#B27534" fill-opacity="1" style="mix-blend-mode:passthrough"/></g><g><g><path d="M132.54869148447267,24.77172986230469C133.17488218447266,25.032456862304688,136.77419708447266,28.764037862304686,140.24134638447265,26.325919862304687C143.14646358447266,24.283342862304686,138.66432138447266,22.104678862304688,136.04535298447266,21.18768086230469C133.85496738447264,20.66241086230469,130.97038145447266,18.984851862304687,131.14746072467267,16.01256086230469C131.46312251447264,10.365587682304687,136.89995048447267,9.384998502304688,141.47961558447267,10.328704182304687C142.01726758447265,10.918838202304688,142.46381258447266,13.168724762304688,142.96425358447266,14.270138762304686C142.49076058447267,14.335002462304686,140.15794278447265,13.164908662304688,139.21993918447265,12.974132562304687C133.92041158447265,11.863814862304688,132.47811928447265,17.691390562304687,138.33454708447266,19.150191262304688C140.30679128447267,19.651297562304688,144.86592458447265,21.607387862304687,144.48867058447266,25.270289862304686C143.94973658447265,30.656533862304688,136.26221228447267,31.066066862304687,131.96099835447265,28.067067862304686C131.74542433447266,27.671525862304687,132.10856407447267,25.842616862304688,132.54869438447267,24.773000862304688L132.54869148447267,24.77172986230469ZM133.94222358447266,16.268202262304687C133.96018788447265,16.397930662304688,133.95248918447265,16.532745362304688,133.94735618447265,16.692996462304688C134.01408128447267,16.78965566230469,134.08080698447264,17.073277462304688,134.14753198447266,17.169937162304688C134.13085078447267,16.853248162304688,134.09492108447265,16.406832662304687,133.94222358447266,16.268202262304687ZM134.80708548447265,19.41727926230469C134.68005128447265,19.274833662304687,134.47859218447266,19.16927056230469,134.28354838447265,19.117125462304685C134.46704318447266,19.277375262304687,134.58252928447266,19.34224126230469,134.80708548447265,19.41727926230469Z" fill="#FCF9F2" fill-opacity="1" style="mix-blend-mode:passthrough"/></g><g><path d="M156.64586783447265,23.26708028105469C153.25699233447267,30.129932081054687,143.95394814447266,27.784659081054688,144.93429841847265,19.975556381054687C145.73371815447265,13.571837961054687,153.47256943447266,12.172812981054687,155.33959283447265,18.10595088105469C155.53206883447265,18.71770568105469,156.29299383447267,20.340573781054687,155.91830683447265,20.921806381054687C155.89136083447266,20.925621481054687,148.08321953447265,22.202550881054687,147.54813263447267,22.009230581054688C147.02972933447265,24.841620081054685,151.96355053447266,25.630161081054688,155.47432483447267,23.904272081054685C155.77587183447267,23.756737681054688,156.64586783447265,23.26708028105469,156.64586783447265,23.26708028105469ZM147.51476863447266,24.08614638105469C147.48782083447264,24.089961981054685,147.46600723447267,24.119214081054686,147.45702603447265,24.25275708105469L147.53529973447266,24.242582281054688L147.51348613447266,24.08614638105469L147.51476863447266,24.08614638105469ZM147.49680423447265,18.93519168105469L147.15419583447266,19.16793828105469C147.38773513447265,19.109433181054687,147.60202603447266,19.106890181054688,147.49680423447265,18.93519168105469ZM147.53914923447266,20.204487781054688C148.85697433447265,20.050594281054686,152.49478483447265,19.42357778105469,153.32371613447265,19.017859981054688C153.26084233447267,18.760947681054688,153.14150333447265,18.670648081054686,152.98880863447266,18.34632828105469C151.73001103447265,15.648754281054687,148.20896863447265,16.34190798105469,147.53914923447266,20.204487781054688ZM148.07551713447265,16.731090981054688C148.16790603447265,17.01089548105469,148.06781843447266,16.864634781054686,148.26542683447266,16.944759381054688L148.25516133447266,16.865905981054688C148.29622383447267,16.780692781054686,148.27825733447267,16.836654181054687,148.28595833447267,16.703110481054686L148.07551713447265,16.732362281054687L148.07551713447265,16.731090981054688ZM148.60290333447264,15.703443381054687L148.68117763447265,15.693268381054688L148.65936353447265,15.536831581054688L148.73891993447265,15.526656581054688L148.64909793447265,15.459249281054687L148.60290333447264,15.704714581054688L148.60290333447264,15.703443381054687ZM149.68590643447266,15.396929381054687C149.76418063447267,15.572442981054687,149.82962183447265,16.041752581054688,149.92585993447267,16.16130598105469C149.91302773447265,15.871326481054687,149.97333713447264,15.730151881054688,149.96692323447266,15.492317481054688L149.89634753447265,15.368948681054688L149.68590643447266,15.398201381054687L149.68590643447266,15.396929381054687ZM153.03885073447265,19.482081381054687L152.96057893447266,19.49225618105469C152.84380863447265,19.614353681054688,152.55380963447266,19.653780981054688,152.46398973447265,19.77206088105469L152.67443223447265,19.742808781054688C152.79120253447266,19.620711781054688,152.94903473447266,19.59909058105469,153.04013923447266,19.480810181054686L153.03885073447265,19.482081381054687ZM153.80875773447266,17.30596158105469C153.85623553447266,17.645542881054688,153.91013053447267,18.035998781054687,154.02818013447265,18.311987881054687L154.08079053447267,18.304357481054687L153.99738503447264,17.70531968105469C153.95632263447266,17.604845081054687,153.87163253447267,17.377184381054686,153.80747313447264,17.30596158105469L153.80875773447266,17.30596158105469Z" fill="#FCF9F2" fill-opacity="1" style="mix-blend-mode:passthrough"/></g><g><path d="M166.90172720947265,21.86913106230469C163.51285170947267,28.731984862304685,154.20980751947266,26.386709862304688,155.19015779347265,18.577607162304687C155.98957949947265,12.173888742304687,163.72842880947266,10.774863762304687,165.59545220947265,16.70800166230469C165.78792820947265,17.31975646230469,166.54885320947267,18.942626462304688,166.17416620947265,19.523857162304687C166.14722020947266,19.527672262304687,158.33907890947265,20.804599262304688,157.80399200947267,20.611281362304688C157.28558660947266,23.443670862304685,162.21940990947266,24.232211862304688,165.73018420947267,22.506322862304685C166.03173120947267,22.358788462304688,166.90172720947265,21.86913106230469,166.90172720947265,21.86913106230469ZM157.77062800947266,22.68819716230469C157.74368240947265,22.692012762304685,157.72186660947267,22.721264862304686,157.71288350947265,22.85480786230469L157.79115530947266,22.844633062304688L157.76933960947267,22.68819716230469L157.77062800947266,22.68819716230469ZM157.75266150947266,17.53724246230469L157.41005110947265,17.76998906230469C157.64359070947265,17.711483962304687,157.85787940947264,17.708940962304688,157.75266150947266,17.53724246230469ZM157.79500480947266,18.806538562304688C159.11282750947265,18.652645062304686,162.75063990947265,18.02562856230469,163.57957550947265,17.619910762304688C163.51670170947267,17.362998462304688,163.39736270947265,17.272698862304686,163.24466800947266,16.94837906230469C161.98587040947265,14.250805062304687,158.46482800947265,14.943957762304688,157.79500480947266,18.806538562304688ZM158.33137250947266,15.333141762304688C158.42376160947265,15.612946262304687,158.32367370947264,15.466685562304688,158.52128430947266,15.546811062304688L158.51102070947266,15.467956762304688C158.55208320947267,15.382743562304688,158.53411670947267,15.438703762304687,158.54181550947266,15.305161262304686L158.33137250947266,15.334413762304688L158.33137250947266,15.333141762304688ZM158.85875720947266,14.305494162304687L158.93702910947266,14.295319162304688L158.91521330947265,14.138882362304688L158.99476960947266,14.128707362304688L158.90494560947266,14.061300062304687L158.85875320947267,14.306765362304688L158.85875720947266,14.305494162304687ZM159.94176010947265,13.998980162304687C160.02003190947266,14.174493762304687,160.08547540947265,14.643803362304688,160.18171400947264,14.763356762304687C160.16888090947265,14.473377262304687,160.22919030947264,14.332202662304688,160.22277640947266,14.094368262304688L160.15220310947265,13.970999462304688L159.94176010947265,14.000252162304687L159.94176010947265,13.998980162304687ZM163.29470630947264,18.084132162304687L163.21643450947266,18.09430696230469C163.09966470947265,18.216404462304688,162.80966470947266,18.255831762304688,162.71984430947265,18.37411166230469L162.93028780947265,18.344859562304688C163.04705760947266,18.222762562304688,163.20488930947266,18.20114136230469,163.29599470947267,18.082860962304686L163.29470630947264,18.084132162304687ZM164.06461330947266,15.908012362304687C164.11209010947266,16.247593662304688,164.16598510947264,16.638049562304687,164.28403570947265,16.914038662304687L164.33664700947264,16.906408262304687L164.25324150947264,16.30737046230469C164.21217820947265,16.206894662304688,164.12748810947267,15.979235162304688,164.06332870947267,15.908012362304687L164.06461330947266,15.908012362304687Z" fill="#FCF9F2" fill-opacity="1" style="mix-blend-mode:passthrough"/></g></g></g><g><g clip-path="url(#master_svg1_13_0067)"><g><path d="M105.132061875,35.39733928125C95.994987875,19.98862268125,79.319800875,7.33860758125,50.537318875,11.24875677125C21.756147875,15.158905481249999,11.247796075,32.177528281250005,4.8519804749999995,50.34759928125Q-1.5438351250000002,68.51634228124999,7.136576675,80.59129328125L8.085420575,80.85100528125C7.149736375,85.73769428125,9.522504775,91.65393028125,15.416918875,91.74536128125C15.748553875,91.75065628125,16.067028875,91.73873928125,16.381556875,91.72151228125L13.816650875,107.33958428125Q14.560196875,109.10981028125,23.355102875,108.76531228125Q32.150004875,108.42080728125,49.281840875,115.89526828125L52.594245875,116.47033828125Q54.535361875,115.89526828125,63.330264875,112.44490828125Q72.125167875,108.99455228125,91.198127875,109.80015528125L91.090209875,103.56193528125L92.454909875,103.93559228125C101.934142875,100.71579028125,110.043411875,84.15561628125,113.128131875,73.92111928125C116.211551875,63.68663028125,114.270431875,50.80738028125,105.133371875,35.397340281249996L105.132061875,35.39733928125Z" fill="#FCF9F2" fill-opacity="1" style="mix-blend-mode:passthrough"/></g><g><g><path d="M16.586937499999998,93.6164230625C16.1158055,93.6164230625,15.6341455,93.59257306250001,15.1445895,93.5448740625C9.1751618,92.9605410625,6.6721085,90.1435370625,5.6232473899999995,87.8830450625C3.7295071,83.7993170625,5.30082446,79.0385026625,7.4038107,75.9432463625C8.5329487,74.2816637625,10.316143499999999,73.3249955175,12.4270263,73.2481458462C13.9970274,73.1911707405,15.6959995,73.6244524725,17.2067795,74.4698190625C17.4357665,74.5970203625,18.037181500000003,74.6884474625,18.5688515,74.7692760625C20.583664499999998,75.0753564625,23.9539695,75.5868182625,26.0319495,80.1011757625C27.4611395,83.2057084625,27.1702995,86.8084530625,25.2726115,89.5022300625C23.4025575,92.1562590625,20.2875595,93.61510506249999,16.585620499999997,93.61510506249999L16.586937499999998,93.6164230625ZM11.5505629,78.7999915625C9.9173923,81.20358896249999,9.3646674,83.9940910625,10.175331100000001,85.7431260625C11.0728507,87.6763410625,13.6377573,88.3163220625,15.6301985,88.51110506250001C18.1543085,88.7588830625,20.1230605,88.07119606250001,21.1758705,86.5778900625C22.0470675,85.34163906250001,22.1589295,83.7158390625,21.4746055,82.2304830625C20.5323405,80.1846451625,19.5124305,80.0296192625,17.820040499999998,79.7725639625C16.868565500000003,79.6281323625,15.7894355,79.4638304625,14.7668943,78.8927454625C13.7798862,78.3402118625,12.129607700000001,77.9466752625,11.549247300000001,78.7999915625L11.5505629,78.7999915625Z" fill="#B27534" fill-opacity="1" style="mix-blend-mode:passthrough"/></g><g><path d="M92.1950339375,96.69195325C87.9416847375,96.69195325,84.3831923375,94.94557225,82.4039057375,91.87813425C80.6022857475,89.08498025,80.3693491475,85.58691885,81.7814348975,82.51815605C83.8594141375,78.00246815,87.2310347375,77.49101045,89.2445383375,77.18625625C89.7762041375,77.10543165,90.3776226375,77.01400445,90.6066074375,76.88679925C92.1173859375,76.04143256,93.81504393750001,75.608150795,95.3863619375,75.6651259027C97.49724193750001,75.741975583,99.2804429375,76.69864785,100.4095749375,78.36022665C102.8573529375,81.96297025,103.1245079375,87.28559425,101.0596869375,91.30307125C99.3291259375,94.66863825,96.1864999375,96.63231625,92.4371759375,96.69062025C92.3569009375,96.69062025,92.2753089375,96.69194625,92.1950339375,96.69195325ZM95.1007899375,80.71877764999999C94.4190959375,80.71877764999999,93.6215939375,80.98643545,93.0478149375,81.30708885C92.0252709375,81.87950085,90.9461489375,82.04247665,89.9946670375,82.18690825C88.3035950375,82.44396255,87.2823691375,82.59898905,86.3401003375,84.64482785C85.6597247375,86.12487924999999,85.7623696375,87.79838625,86.6164598375,89.12208425C87.6876950375,90.78101925,89.7261953375,91.67010525,92.3595349375,91.63168325C94.2822269375,91.60120825,95.7074689375,90.70814325,96.5984109375,88.97633525C97.8117709375,86.61646525,97.6670109375,83.28005405,96.2641479375,81.21433595C96.0219979375,80.85657735,95.5916679375,80.71877764999999,95.1007899375,80.71877764999999Z" fill="#B27534" fill-opacity="1" style="mix-blend-mode:passthrough"/></g><g><path d="M52.5947146875,119.000051921875C52.4525906875,119.000051921875,52.3091426875,118.988124921875,52.1683306875,118.962947921875L48.8559306875,118.387883921875C48.5242956875,118.330907921875,48.2084466875,118.206357921875,47.9255066875,118.023501921875C47.8202286875,117.955924921875,37.1565816875,111.141320921875,29.2710426875,111.450053921875C20.323481587499998,111.801187921875,17.1861085875,110.95979292187499,16.8584208875,110.863069921875C15.8516718875,110.564937921875,15.1344459875,109.66789392187499,15.0607486875,108.61450592187501L13.8842340363,91.809207421875C13.7868494615,90.416604521875,14.8291303475,89.206855791875,16.2135741875,89.108805208475C17.5993339875,89.009428314875,18.7982205875,90.060172381875,18.8956064875,91.454101521875L19.9313068875,106.251981921875C21.547368487500002,106.418937921875,24.434697687499998,106.577941921875,29.0749546875,106.396413921875C37.6290316875,106.063830921875,47.9149776875,112.082091921875,50.1943096875,113.487950921875L52.4065246875,113.87221192187499C53.4264336875,113.523728921875,56.1532096875,112.54718792187501,62.4187426875,110.089265921875C69.6620676875,107.248410921875,82.9590526875,107.117234921875,88.6415866875,107.204682921875L88.4336546875,95.243678521875C88.4099726875,93.847104521875,89.5140986875,92.695657721875,90.9011766875,92.670481921875C92.2869416875,92.645305921875,93.4318616875,93.75833032187501,93.4568706875,95.154903921875L93.7095416875,109.756682921875C93.7213816875,110.453649921875,93.4476546875,111.124110921875,92.9528346875,111.610393921875C92.4580156875,112.096675921875,91.7855296875,112.356381921875,91.0933076875,112.327226921875C90.9077526875,112.319276921875,72.4414826875,111.585216921875,64.2427286875,114.801047921875C55.4491386875,118.25009392187499,53.3869516875,118.871522921875,53.3040426875,118.895379921875C53.0737376875,118.964282921875,52.8342246875,118.99873692187501,52.5947116875,118.99873692187501L52.5947146875,119.000051921875Z" fill="#B27534" fill-opacity="1" style="mix-blend-mode:passthrough"/></g><g><path d="M90.65113025,80.822088734375C89.28379025,80.822088734375,88.16386425,79.71833973437501,88.14016725,78.33766573437501L87.91909025,65.610800734375C79.72165725,63.533163034375,71.68477225000001,64.939012534375,66.23648025,66.559519734375C59.79460525,68.475504734375,55.42281725,71.113630734375,55.37939025,71.140131734375C54.30683925,71.793369734375,52.93029425,71.546915734375,52.14463825,70.592896734375C51.89196025,70.354393734375,49.62579325,68.401304734375,39.745174250000005,64.801213234375C30.89499825,61.576102534374996,22.68177225,62.714298734375,19.67073915,63.440413934375C19.49965715,65.993736234375,19.20092205,71.255413734375,19.00878575,74.752153734375C18.93245645,76.146077734375,17.75067905,77.21537373437499,16.36228655,77.138519734375C14.97784203,77.061666734375,13.91582191,75.869144734375,13.9921498045,74.47389573437499C14.69095153,61.699328434375,14.79360121,61.281946434375,14.86334974,61.005017034375C14.99100295,60.488257934375,15.33579735,59.770092534375,16.25042585,59.281157934375C18.22970725,58.219811494375,29.56582825,55.712866234375,41.45467525,60.045695734375C48.68221325,62.679846734375,52.42231325,64.613057634375,54.35026925,65.936757134375C56.30586225,64.907213234375,59.95779825,63.168780834375,64.66516924999999,61.753651134375C74.03780025,58.937972934375,83.19461025,58.772344734375,91.14463825,61.273993034375C92.17770425,61.598625634375,92.88835125,62.553967434375,92.90677625,63.643138434375004L93.15943925,78.24889173437501C93.18313625,79.645463734375,92.07900225,80.796911734375,90.69192525,80.822088734375C90.67744425,80.822088734375,90.66165925,80.822088734375,90.64717825,80.822088734375L90.65113025,80.822088734375ZM52.00908625,70.41003873437501L52.00908625,70.412687734375Q52.00908625,70.411360734375,52.00908625,70.41003873437501ZM52.00645425,70.404737734375Q52.00777425,70.407385734375,52.00908625,70.408712734375Q52.00776625,70.406063734375,52.00645425,70.404737734375Z" fill="#B27534" fill-opacity="1" style="mix-blend-mode:passthrough"/></g><g><path d="M52.82298755,117.8497920625C52.78877015,117.8497920625,52.75455665,117.8497920625,52.71902155,117.8471410625C51.33326185,117.7901650625,50.254130766,116.6135440625,50.3107223085,115.2182880625L52.13866415,69.7951013625C52.19525155,68.3998502625,53.36387065,67.3133280505,54.74963045,67.3703072001C56.13539025,67.4272823115,57.21452145,68.6039053625,57.15792945,69.9991564625L55.32998805,115.4223440625C55.27471355,116.7831500625,54.16268635,117.8484650625,52.82167025,117.8484650625L52.82298755,117.8497920625Z" fill="#B27534" fill-opacity="1" style="mix-blend-mode:passthrough"/></g><g><path d="M92.453758,106.465271C91.4049,106.465271,90.427094,105.798775,90.074402,104.744064C89.630913,103.420364,90.337608,101.985359,91.650986,101.538826C95.304237,100.298599,99.248314,96.384468,103.05553,90.223106C106.15211,85.213188,109.01839,78.843788,110.72263,73.187256C113.82841,62.879883,111.22138,50.602203,102.97395,36.694739999999996C95.460838,24.022203,80.321449,9.7556583,50.874371,13.754584300000001C22.745941,17.5759563,13.269344,34.006269,7.2196388,51.191845C4.7692251,58.15485,4.3481016,64.958855,5.968112,71.41570300000001C7.1827903,76.257347,9.158124,79.088921,9.1778631,79.116753C9.9911594,80.248322,9.7371683,81.825104,8.6132946,82.643967C7.4894204,83.46283,5.9167876,83.20578,5.1021762,82.074211C5.0021596,81.935081,2.6386025,78.605301,1.1659857,72.920937C-0.17371398,67.75200699999999,-1.0317534,59.49313,2.4846294,49.502441C5.0061073,42.339355,9.3094645,31.865032,17.531904,23.655175C25.700386,15.496992599999999,36.387714,10.6195748,50.201889,8.74201405C82.365204,4.3734062,98.999596,20.121329,107.28915,34.101670999999996C111.85045,41.794769,114.84174,49.20166,116.17881,56.116962C117.45929,62.742088,117.24216,68.978981,115.53133,74.655396C113.70603,80.712082,110.63708,87.530663,107.32205,92.894363C102.82787,100.167427,98.095497,104.687088,93.257835,106.331436C92.991997,106.421539,92.720901,106.465271,92.45507,106.465271L92.453758,106.465271Z" fill="#B27534" fill-opacity="1" style="mix-blend-mode:passthrough"/></g><g><path d="M50.979004625,52.35258214875C48.237754505,52.58313521375,47.429721535,58.03693919375,49.722215325,59.42424009375C52.191053825,60.918868993749996,53.491273925,59.30896429375,53.833433625,57.98658749375C54.175593425,56.66421079375,55.044166125000004,52.01072338375,50.977687325,52.35125583075L50.979004625,52.35258214875Z" fill="#B27534" fill-opacity="1" style="mix-blend-mode:passthrough"/></g><g><path d="M54.462828725,22.605793975C55.239274725,23.733390775,57.285674825,22.744922175,57.789705525,21.400021475C58.293736025,20.055120645,56.807962225,19.799390765,56.159165425,19.978269964C55.510368725,20.157149165,53.311314645,20.932287675,54.462828725,22.605793975Z" fill="#B27534" fill-opacity="1" style="mix-blend-mode:passthrough"/></g><g><path d="M21.99196965,36.575644435C21.11024237,37.622413525,22.59075528,39.356873025,24.0107307,39.498649625C25.4307063,39.640426425,25.2925267,38.129898325,24.9529955,37.545561825C24.613464399999998,36.961225155,23.3000853,35.022714855,21.99196965,36.576968785L21.99196965,36.575644435Z" fill="#B27534" fill-opacity="1" style="mix-blend-mode:passthrough"/></g><g><path d="M13.849047485,54.846154328125C13.663489385,56.205631528125,15.836224425,56.868144028125,17.110124625,56.220204628125C18.384022725,55.572265628125,17.461499425,54.373119418125,16.862714025,54.063064008125C16.263928125,53.753008638125,14.122778085,52.829465988125,13.8477311926,54.846154328125L13.849047485,54.846154328125Z" fill="#B27534" fill-opacity="1" style="mix-blend-mode:passthrough"/></g><g><path d="M85.71120793,40.2498615C86.6811078,41.2131557,88.5103669,39.8589797,88.7577779,38.4438517C89.006506,37.02872384,87.4983537,37.05389963,86.8943089,37.35070598C86.2902561,37.64751235,84.2714991,38.8201584,85.70989865,40.2498615L85.71120793,40.2498615Z" fill="#B27534" fill-opacity="1" style="mix-blend-mode:passthrough"/></g><g><path d="M100.677072075,60.520016930575C99.317629965,60.414016541875,98.788598835,62.636082221875,99.505818635,63.878956521875C100.223046575,65.121830921875,101.358764875,64.124087121875,101.629862975,63.503976121875C101.902278375,62.883865321875,102.693202475,60.677699301875,100.677072075,60.520016930575Z" fill="#B27534" fill-opacity="1" style="mix-blend-mode:passthrough"/></g><g><path d="M60.566151625,52.518370845875C63.307401225,52.748923901875,63.749583225,57.871471421875,61.483411825,59.661581021875C59.841028025,60.958782221875,57.714353085,59.546304221875,57.372193355,58.223928021875C57.030033605,56.901551721875,56.500994505,52.176516171875,60.567468925,52.518370845875L60.566151625,52.518370845875Z" fill="#B27534" fill-opacity="1" style="mix-blend-mode:passthrough"/></g></g></g></g></g></svg>