<svg xmlns="http://www.w3.org/2000/svg" xmlns:xlink="http://www.w3.org/1999/xlink" fill="none" version="1.1" width="139" height="66" viewBox="0 0 139 66"><g><g><g><g><path d="M94.48972303047363,61.23004674658203C94.68510812047363,61.34535884658203,95.70639951047363,62.75873084658203,96.96666291047363,62.10113144658203C98.02297971047363,61.55027484658203,96.63817021047363,60.61685944658203,95.81226411047363,60.19066404658203C95.11090356047363,59.914847846582035,94.23206023847364,59.222186346582035,94.42744535047363,58.235784746582034C94.79175180047363,56.36037987658203,96.63817021047363,56.28090545658203,98.11172101047363,56.80527391658203C98.26273061047364,57.02732860658203,98.30710601047363,57.80024484658203,98.42231131047363,58.191372846582034C98.26273061047364,58.191372846582034,97.54346771047364,57.69349754658203,97.24143931047364,57.58675484658203C95.53668951047364,56.97356736658203,94.79096305047364,58.85754184658203,96.66462441047364,59.61253424658203C97.29514571047363,59.87043114658203,98.71576881047363,60.73216674658203,98.42230181047363,61.94062284658203C97.99650641047363,63.71785454658203,95.43004581047363,63.50436924658203,94.14253011527363,62.30526254658203C94.08959312347363,62.162677246582035,94.29353975047363,61.56741334658203,94.48892486047363,61.23004244658203L94.48972303047363,61.23004674658203ZM95.34209311047363,58.44849474658203C95.34209311047363,58.49290664658203,95.33353171047364,58.537318446582034,95.32419081047364,58.59107994658203C95.34209311047363,58.62692214658203,95.35065461047363,58.72431544658203,95.36855681047363,58.76015304658203C95.37711851047364,58.65341044658203,95.38645901047363,58.50225604658203,95.34209311047363,58.44927494658203L95.34209311047363,58.44849474658203ZM95.48376201047363,59.541639046582034C95.44795751047363,59.48865744658203,95.38645901047363,59.44424584658203,95.32418141047363,59.41697714658203C95.37711851047364,59.47930814658203,95.41292271047364,59.50580124658203,95.48376201047363,59.541639046582034Z" fill="#B27534" fill-opacity="1" style="mix-blend-mode:passthrough"/></g><g><path d="M102.54343126809692,61.825323303466796C101.10490586809692,63.967194603466794,98.13055222809692,62.7587390034668,98.81400097809693,60.1898967034668C99.37368303809693,58.0838626934668,102.00164226809693,57.9685505634668,102.34804626809692,60.038742103466795C102.38385076809692,60.2522274034668,102.56133366809692,60.8295772034668,102.41032406809693,61.0072200034668C102.40176246809692,61.0072200034668,99.75590106809692,61.078120203466796,99.58697992809692,60.989301203466795C99.28495108809692,61.9133673034668,100.88305706809692,62.402673503466794,102.12619756809693,61.9842720034668C102.23284126809692,61.948429803466794,102.54343126809692,61.8245482034668,102.54343126809692,61.8245482034668L102.54343126809692,61.825323303466796ZM99.48033618809693,61.6827381034668C99.47177463809692,61.6827381034668,99.46243393809692,61.6913078034668,99.45387243809692,61.7357197034668L99.48033618809693,61.7357197034668L99.48033618809693,61.6827381034668ZM99.71152573809692,59.958487703466794L99.58697992809692,60.0208185034668C99.66715979809692,60.0122490034668,99.73798946809693,60.0208185034668,99.71152573809692,59.958487703466794ZM99.66715979809692,60.3854583034668C100.11085746809692,60.3940277034668,101.34544566809693,60.3496158034668,101.63812426809693,60.25222280346679C101.62956286809693,60.1633989034668,101.59375836809693,60.1275612034668,101.55794426809692,60.0122442034668C101.26525636809693,59.05233585346679,100.06648186809693,59.123240833466795,99.66715979809692,60.3854583034668ZM100.00421376809692,59.2479069834668C100.02211606809692,59.345300253466796,99.99565216809692,59.292318943466796,100.05715086809693,59.3281613634668L100.05715086809693,59.301668283466796C100.07505306809692,59.2751752734668,100.06571216809692,59.293098863466795,100.07505306809692,59.248686973466796L100.00421376809692,59.248686973466796L100.00421376809692,59.2479069834668ZM100.22606266809693,58.927679123466795L100.25252636809692,58.927679123466795L100.25252636809692,58.874697803466795L100.27899006809692,58.874697803466795L100.25252636809692,58.8482047034668L100.22606266809693,58.928459043466795L100.22606266809693,58.927679123466795ZM100.59893066809693,58.874697803466795C100.61683276809693,58.9370284934668,100.61683276809693,59.0967524634668,100.64329656809693,59.1411643634668C100.65185816809692,59.043771113466796,100.67910096809692,58.998579353466795,100.68766256809693,58.9191096734668L100.66976036809692,58.874697803466795L100.59893066809693,58.874697803466795ZM101.52214006809692,60.3940326034668L101.49567626809693,60.3940326034668C101.45131036809693,60.429874903466796,101.35322786809692,60.429874903466796,101.31819316809693,60.4649326034668L101.38903256809692,60.4649326034668C101.43339846809693,60.42909030346679,101.48633526809692,60.42909030346679,101.52214006809692,60.3940326034668ZM101.87710546809693,59.7005906034668C101.87710546809693,59.8159027034668,101.87710546809693,59.9491385034668,101.90356946809692,60.0473117034668L101.92147156809692,60.0473117034668L101.92147156809692,59.8431756034668C101.91291026809692,59.8073332034668,101.89500786809693,59.7278635034668,101.87710546809693,59.7005906034668Z" fill="#B27534" fill-opacity="1" style="mix-blend-mode:passthrough"/></g><g><path d="M106.00648258721924,61.825323303466796C104.56795718721924,63.967194603466794,101.59360354721923,62.7587390034668,102.27705229721924,60.1898967034668C102.83673435721924,58.0838626934668,105.46469358721924,57.9685505634668,105.81109758721924,60.038742103466795C105.84690208721923,60.2522274034668,106.02438498721924,60.8295772034668,105.87337538721924,61.0072200034668C105.86481378721923,61.0072200034668,103.21895238721923,61.078120203466796,103.05003124721924,60.989301203466795C102.74800240721923,61.9133673034668,104.34610838721923,62.402673503466794,105.58924888721924,61.9842720034668C105.69589258721923,61.948429803466794,106.00648258721924,61.8245482034668,106.00648258721924,61.8245482034668L106.00648258721924,61.825323303466796ZM102.94338750721924,61.6827381034668C102.93482595721923,61.6827381034668,102.92548525721924,61.6913078034668,102.91692375721924,61.7357197034668L102.94338750721924,61.7357197034668L102.94338750721924,61.6827381034668ZM103.17457705721924,59.958487703466794L103.05003124721924,60.0208185034668C103.13021111721923,60.0122490034668,103.20104078721924,60.0208185034668,103.17457705721924,59.958487703466794ZM103.13021111721923,60.3854583034668C103.57390878721924,60.3940277034668,104.80849698721924,60.3496158034668,105.10117558721925,60.25222280346679C105.09261418721924,60.1633989034668,105.05680968721924,60.1275612034668,105.02099558721923,60.0122442034668C104.72830768721924,59.05233585346679,103.52953318721924,59.123240833466795,103.13021111721923,60.3854583034668ZM103.46726508721923,59.2479069834668C103.48516738721924,59.345300253466796,103.45870348721924,59.292318943466796,103.52020218721924,59.3281613634668L103.52020218721924,59.301668283466796C103.53810438721924,59.2751752734668,103.52876348721924,59.293098863466795,103.53810438721924,59.248686973466796L103.46726508721923,59.248686973466796L103.46726508721923,59.2479069834668ZM103.68911398721924,58.927679123466795L103.71557768721924,58.927679123466795L103.71557768721924,58.874697803466795L103.74204138721923,58.874697803466795L103.71557768721924,58.8482047034668L103.68911398721924,58.928459043466795L103.68911398721924,58.927679123466795ZM104.06198198721924,58.874697803466795C104.07988408721924,58.9370284934668,104.07988408721924,59.0967524634668,104.10634788721924,59.1411643634668C104.11490948721924,59.043771113466796,104.14215228721923,58.998579353466795,104.15071388721924,58.9191096734668L104.13281168721923,58.874697803466795L104.06198198721924,58.874697803466795ZM104.98519138721923,60.3940326034668L104.95872758721924,60.3940326034668C104.91436168721924,60.429874903466796,104.81627918721924,60.429874903466796,104.78124448721924,60.4649326034668L104.85208388721924,60.4649326034668C104.89644978721924,60.42909030346679,104.94938658721924,60.42909030346679,104.98519138721923,60.3940326034668ZM105.34015678721924,59.7005906034668C105.34015678721924,59.8159027034668,105.34015678721924,59.9491385034668,105.36662078721923,60.0473117034668L105.38452288721923,60.0473117034668L105.38452288721923,59.8431756034668C105.37596158721924,59.8073332034668,105.35805918721924,59.7278635034668,105.34015678721924,59.7005906034668Z" fill="#B27534" fill-opacity="1" style="mix-blend-mode:passthrough"/></g><g><path d="M107.16950008973389,62.696401822607996C106.67208623973389,62.696401822607996,106.28131606973389,62.66990872260799,106.05946722913389,62.66990872260799C106.03300348473388,62.572515722607996,106.29921827973389,58.00438202260799,106.19257463973389,56.982142882607995C106.48526268973389,56.857481422608,106.86747133973388,56.724245741607994,107.20452538973389,56.644771322607994C107.20452538973389,56.866826042608,107.19596388973389,57.124723182607994,107.21308698973388,57.20497744260799C107.4528379897339,56.94708036260799,108.26084208973388,56.787356372607995,108.94430038973388,56.929161502608C110.56887008973389,57.26653306260799,111.30603508973388,58.617569522607994,110.81796218973389,60.652698722607994C110.34779068973388,62.61692732260799,108.46478838973388,62.696397522607995,107.16871138973389,62.696397522607995L107.16950008973389,62.696401822607996ZM107.27614368973389,57.82673932260799C107.27614368973389,58.52018102260799,107.16093858973389,60.99942422260799,107.16093858973389,61.870509322607994C108.34181098973389,62.101137822607996,109.35376138973389,61.586118922607994,109.64721918973389,60.15560792260799C110.00218488973388,58.431357522607996,108.52862498973388,57.24939416260799,107.27692278973389,57.82751932260799L107.27614368973389,57.82673932260799ZM109.14046458973388,57.462099482608C109.18483038973389,57.550923332607994,109.26501058973389,57.63974701260799,109.35375188973389,57.657665922608C109.36231328973389,57.61325405260799,109.37165398973389,57.604684572607994,109.38021588973389,57.550923332607994L109.22920608973389,57.381849872607994L109.14046458973388,57.381849872607994C109.13190288973388,57.444180652608,109.1140007897339,57.40834300260799,109.14046458973388,57.462099482608ZM109.85972718973389,60.78593422260799C109.80679038973389,60.883327722607994,109.54913708973389,61.37263372260799,109.55769868973388,61.399122022608C109.57560058973388,61.461452722607994,109.58416248973388,61.42561502260799,109.64643998973389,61.461452722607994C109.66434238973389,61.425609822607996,109.64643998973389,61.43495912260799,109.69080588973388,61.41704052260799C109.7881090897339,61.239393422607996,109.91265458973389,61.07966872260799,109.85972718973389,60.78593422260799ZM110.03720998973388,58.448496322607994L109.99284458973389,58.377596022607996L110.01930808973388,58.448496322607994L110.03720998973388,58.448496322607994Z" fill="#B27534" fill-opacity="1" style="mix-blend-mode:passthrough"/></g><g><path d="M111.05852699279785,57.01798579096794C111.55594086279785,57.03590462696794,112.07047769279785,57.293801750967944,112.30166719279785,57.61325452096794C112.21292589279786,57.75583956096794,111.90233558279785,58.26228439096794,111.71551197279786,58.351103490967944C111.64467281279785,58.342533990967944,111.10289296179785,57.382625550967944,111.05852699279785,57.01798579096794ZM112.30166719279785,58.68847499096794C112.30166719279785,58.94637219096794,112.12418439279786,62.25228829096794,112.15921919279785,62.634071790967944C112.14131699279785,62.73146479096794,111.54660013279785,62.91846179096794,111.28037585279785,62.90053839096794C111.28037585279785,62.74938339096794,111.43138548279785,58.87469209096794,111.36911726279786,58.85676859096794C111.56450236279785,58.85676859096794,112.23939919279785,58.62536439096794,112.30166719279785,58.68769509096794L112.30166719279785,58.68847499096794ZM111.77778965279785,61.55885119096794L111.72485268279785,61.40769619096794C111.69838899279785,61.69208669096794,111.71629113279785,61.79025499096794,111.75131643279785,62.02945329096794L111.77778023279785,62.02945329096794L111.77778965279785,61.55885119096794Z" fill="#B27534" fill-opacity="1" style="mix-blend-mode:passthrough"/></g><g><path d="M116.04832454089356,61.79882836905517C116.06622724089355,61.84324026905517,115.41780354089356,62.829637069055174,114.52105784089355,62.865479469055174C112.07914320089355,62.96287296905518,111.74208915089355,59.47930889905518,113.84616104089355,58.75080915905517C114.66272664089355,58.46641894405518,115.05349684089356,58.46641894405518,115.71048214089356,58.88404485905517C115.80778484089356,58.946375609055174,116.11915424089355,59.16843509905517,115.97670624089355,59.310235499055175C115.91442874089356,59.33672850905518,115.66611604089356,59.75434966905517,115.55947234089355,59.75434966905517C115.47073104089355,59.66552576905518,115.19516584089355,59.18557399905517,115.05349684089356,59.20349281905518C112.47847491689356,59.52372073905518,113.26856732089355,63.202851269055174,116.04832454089356,61.798048469055175L116.04832454089356,61.79882836905517ZM113.15414131089355,60.15483186905517C113.22498053089356,60.15483186905517,113.26934653089356,60.14626236905518,113.31372195089355,60.12833896905518C113.23354202089355,60.12833896905518,113.20707834089356,60.12833896905518,113.15414131089355,60.15483186905517ZM114.28207634089355,62.420590169055174L114.32644234089355,62.429159669055174C114.50392534089356,62.509413969055174,114.77948074089356,62.500059569055175,115.00990084089355,62.420590169055174C114.79661324089355,62.367608769055174,114.54829144089355,62.473571569055174,114.34434464089355,62.39409706905518L114.28207634089355,62.420590169055174Z" fill="#B27534" fill-opacity="1" style="mix-blend-mode:passthrough"/></g><g><path d="M119.21796752905273,62.5810926887703C118.72989442905273,63.087537588770296,117.58405712905274,63.04312548877029,117.17616392905273,62.643423388770294C116.73246612905274,62.2078783887703,117.01658322905273,61.3282239887703,116.91850102905273,59.85330158877029C116.73167742905274,59.80032018877029,116.28797977905273,59.871220188770295,115.92445253905274,59.85330158877029C115.82714959905273,59.80032018877029,115.67613996605273,59.391268588770295,115.58739852905273,59.2401139887703C115.92445253905274,59.23154458877029,116.68809072905273,59.18713268877029,116.94574392905274,59.14272078877029L116.94574392905274,57.5696247787703C117.15903122905273,57.427039708770295,117.82458732905273,57.18784130377029,117.97559712905273,57.285234553770294C117.95769472905273,57.64052494877029,117.83314892905274,59.06246658877029,117.93123102905274,59.04454758877029C117.99350852905273,59.03597808877029,118.75713732905274,58.991566288770294,119.01480032905273,58.973647388770296C119.21874662905273,59.18713268877029,119.42347242905274,59.613328088770295,119.34329272905273,59.65773968877029C119.16580962905273,59.72007068877029,118.15385892905273,59.666309388770294,117.87830352905273,59.737994288770295C117.81602592905273,60.19145778877029,117.86040142905273,61.2043476887703,117.87830352905273,61.51522618877029C117.87830352905273,62.4042294887703,118.48236102905274,62.4042294887703,119.27246312905274,61.7731235887703C119.22809692905274,62.084001888770295,119.25456072905274,62.4042294887703,119.21952602905273,62.58187708877029L119.21796752905273,62.5810926887703ZM117.57549562905274,61.7544195887703C117.58405712905274,61.71000798877029,117.59339782905273,61.62118418877029,117.57549562905274,61.61261448877029C117.50465642905273,61.71000798877029,117.24700302905273,62.05672868877029,117.53112962905273,62.2437207887703C117.45094952905274,62.048154688770296,117.54903182905274,61.888430388770296,117.57549562905274,61.75519498877029L117.57549562905274,61.7544195887703Z" fill="#B27534" fill-opacity="1" style="mix-blend-mode:passthrough"/></g></g><g><g><path d="M116.44993209838867,25.49141502380371C118.85682149838867,26.56196092380371,123.53670409838867,27.96754102380371,124.80708689838868,30.04162742380371C125.94358439838868,31.64744572380371,124.53931429838867,36.53269302380371,123.60364719838867,37.93827302380371C122.19936849838867,38.406540023803714,122.19936849838867,38.54055302380371,121.46454099838867,37.93827302380371C121.59842729838867,38.00527902380371,116.85160135838868,27.699514423803713,116.44993209838867,25.49141502380371Z" fill="#B27534" fill-opacity="1" style="mix-blend-mode:passthrough"/></g><g><path d="M85.0178921263153,13.336731447589111C84.6839454263153,12.065165947589112,79.06762242631531,8.18423938758911,77.8641778314153,7.581959247589111C77.7302912463153,11.396657447589112,81.14056012631531,17.61969724758911,81.6753368263153,19.22629724758911C83.61439252631531,19.15928924758911,86.3552186263153,15.612617047589112,85.01866222631531,13.337510547589112L85.0178921263153,13.336731447589111Z" fill="#B27534" fill-opacity="1" style="mix-blend-mode:passthrough"/></g><g><path d="M98.04089451547851,6.82151626428833C97.61042401547851,5.59591984428833,95.85196781547852,5.55618323428833,92.39342741547851,5.40269136428833C92.48061047547851,6.06652355428833,92.88694530547852,6.08054822428833,93.12358915547851,6.85891566428833C92.87682551547852,8.578490764288329,92.08595387547851,16.44397036428833,92.28366702447852,18.98242936428833C93.57040361547851,16.45098036428833,97.10833501547852,13.08507156428833,97.29048351547851,10.36117746428833C97.65867661547851,9.570344464288329,98.78505321547851,7.87024736428833,98.04088541547851,6.82073756428833L98.04089451547851,6.82151626428833ZM95.25725101547852,8.73899506428833L95.27437421547852,8.871449664288331L95.00892901547851,8.906511064288331L94.93108681547852,8.309684764288331L95.39502401547851,8.24891136428833C95.30628271547852,8.59796886428833,95.37244681547851,8.58939816428833,95.25724151547851,8.73977376428833L95.25725101547852,8.73899506428833Z" fill="#B27534" fill-opacity="1" style="mix-blend-mode:passthrough"/></g><g><path d="M116.37825778723145,36.99784366201782L116.42574278723144,36.298952662017825L116.42574278723144,21.532573662017825C116.78381578723145,19.561332662017822,117.02901878723145,17.644633662017824,117.16368678723144,15.628203862017822C117.17536378723145,14.923076162017821,117.18704178723145,14.454030562017822,117.20026778723144,14.364428062017822C117.22440578723145,14.196132162017822,117.27343578723145,13.948364762017821,117.32715178723144,13.696699662017823C117.38085978723144,12.669005362017822,117.38319578723144,11.642091762017822,117.38319578723144,10.614397562017821C116.42650978723145,9.337377562017823,115.27833778723145,7.038896622017822,113.74718278723145,6.463886412017822C111.89764778723145,5.634095672017822,110.81252978723144,8.442917562017822,109.72818078723145,9.081817162017822C108.32468128723144,9.847717962017821,106.09216738723144,10.103277162017822,104.62484068723144,10.103277162017822C102.83836218723144,7.740906162017822,98.75630378723145,6.527775762017822,98.75630378723145,7.229785922017822L99.26695430723144,37.49493866201782C99.07546508723145,41.517671662017825,98.50176724723144,47.00830666201782,99.13929164723145,49.56234966201782C99.39461689723144,50.45603466201782,100.35129308723144,53.32952366201782,102.13778118723144,53.58508166201782C103.34978248723145,52.30806166201782,106.47515578723144,49.56234966201782,104.62561988723145,51.22271566201782C105.39080668723145,50.58381166201782,109.28214678723144,50.201254662017824,110.30266778723144,49.75402666201782C111.13169078723145,51.54216666201782,111.32317978723145,53.01007666201782,111.96149378723145,53.329527662017824C115.40601778723145,53.329527662017824,115.46984478723144,51.54138466201782,115.46984478723144,52.30806966201782C115.96569978723144,48.53310666201782,116.23036578723145,46.22683566201782,116.35335378723144,43.40476066201782L116.37903778723145,36.99784366201782L116.37825778723145,36.99784366201782ZM110.30187978723144,45.732073662017825C109.72740178723144,45.987631662017826,105.39002798723145,46.24319266201782,104.49717808723145,45.732073662017825C104.49717808723145,42.348242662017825,103.92270138723144,36.28258966201783,104.43335198723145,33.72854866201782C104.94400258723144,33.664659662017826,110.49337778723145,32.64320066201782,110.81252978723144,32.38763866201782C110.94019278723144,38.197727662017826,110.30187978723144,43.05025766201782,110.30187978723144,45.732073662017825ZM110.81252978723144,26.321987662017822C109.60052778723144,27.40733566201782,106.28365708723145,27.79067466201782,104.36951538723144,27.599008662017823C104.36951538723144,22.490925662017823,103.54049248723145,18.595973662017823,104.56100468723145,14.382351362017822C109.08987778723144,13.169220962017821,110.49336778723145,12.530321162017822,111.06784578723145,13.360890862017822C111.19550778723145,13.552561262017822,111.32317078723145,25.236633662017823,110.81251978723145,26.322765662017822L110.81252978723144,26.321987662017822ZM114.32088078723145,12.019200362017823L114.32088078723145,12.657321462017823C114.06555678723144,12.465651062017823,113.61952078723145,12.401761562017821,113.42803078723145,12.337871562017822L113.42803078723145,10.549731262017822C114.19321778723145,10.613621262017823,114.06633478723144,10.805290662017821,114.51237878723144,11.379520862017822Q114.44855278723145,11.826751662017823,114.32088978723145,12.018420262017823L114.32088078723145,12.019200362017823Z" fill="#B27534" fill-opacity="1" style="mix-blend-mode:passthrough"/></g><g><path d="M135.65665077856445,12.509265C133.65065177856445,12.576271,132.91582277856446,13.445799,131.37765877856447,14.115086C129.77332777856446,9.0958261,135.05492977856446,-0.87490571,127.43338177856445,0.0616281C121.55005887856446,0.4628883,122.95354937856445,-0.27262551,121.55005887856446,0.4628883C122.68655537856445,1.2661879,123.35521887856446,3.0730278,123.75610877856445,5.8834076C124.55866817856446,7.2889867,124.49171547856446,13.512026,124.49171547856446,16.055159C121.55004927856446,16.323185,119.81183267856446,17.727985,116.87016677856445,16.657438L117.33800014856445,18.665298C118.60838327856445,20.873398,118.47449667856445,21.074415,120.27966617856445,22.680239C121.48310617856446,21.943945,122.61961217856445,21.274656,125.49432567856445,21.074421C125.76209927856445,33.321037,125.62821297856445,48.913303,125.09343527856446,50.11787L125.09343527856446,53.731548C124.02388187856445,54.132812,121.21533297856445,54.936111,120.27966617856445,54.601856L118.34061017856445,54.601856C119.00927357856445,56.207672,123.75609917856445,60.691658,125.36121847856445,61.829208C126.09682557856445,62.230476,127.63421177856445,63.033775,128.77071877856446,62.498497C130.97676777856447,62.097237,131.31149377856445,60.022369,131.77932677856444,57.747272C132.11327377856446,56.676723,131.64543977856445,55.606178,131.64543977856445,54.066582C131.57849577856445,47.909771,130.77593677856444,21.610479,131.37766777856444,19.602619C133.24977877856446,18.79932,135.05494077856446,19.00034,137.59571477856446,19.134352C137.99660477856446,18.733093,138.59832377856446,18.264046,138.99999577856445,17.728775C138.93305177856445,14.717375,137.26177777856446,13.914074,135.65744977856446,12.509275L135.65665077856445,12.509265ZM125.19852927856445,59.102978L125.19852927856445,59.452812C124.32592057856445,59.278286,124.26753857856446,58.928452,123.74366047856445,58.637047C123.97640847856445,57.530663,124.15077547856446,57.705193,124.67465307856445,57.123169L125.19852927856445,57.123169C125.25691227856446,57.239262,125.25691227856446,57.297699,125.25691227856446,57.297699C125.25691227856446,57.879719,125.37289617856445,58.870014,125.19852927856445,59.102978Z" fill="#B27534" fill-opacity="1" style="mix-blend-mode:passthrough"/></g><g><path d="M99.30904944921875,36.870166853682825C99.26234644921875,36.81172985368282,99.25922944921875,36.75875085368283,99.25922944921875,36.75875085368283C97.98884544921876,35.08592685368282,93.30895444921875,31.539249853682822,91.57073544921874,29.197135853682823C91.36990844921876,28.862882853682823,91.23678944921875,24.914171853682824,91.57073544921874,24.177879853682825C92.03078844921875,23.914527853682824,92.81699544921875,24.167749853682825,96.40630544921875,22.711526853682823C96.62504544921875,22.534660853682823,96.94497844921875,22.307928853682824,97.25400944921876,22.098339853682823L97.25400944921876,20.497970853682823C96.58534644921875,19.627664853682823,97.45483944921875,18.959157853682825,96.18445544921875,18.557119853682824C95.71662144921875,18.289091853682823,94.64706944921875,18.356098853682823,93.57673444921875,18.557119853682824C92.90807344921875,18.691131853682823,92.23940044921875,18.825143853682825,91.83852044921875,19.025384853682823C91.57074544921875,18.423105853682824,91.57074544921875,9.254893753682824,91.97240644921875,6.377507653682824C92.17323644921875,3.9013814536828235,92.84191144921874,4.169407753682823,93.10890244921875,1.6932819536828234C89.69940444921875,-1.9203974463171765,86.89085444921875,1.2250148536828236,84.41702174921875,2.2285551536828234C84.81791214921876,2.9648479536828236,85.48657514921875,4.035394553682823,86.15523844921876,4.303420453682824C86.08829544921875,4.838694053682824,85.75434844921875,18.758136853682824,85.82129144921875,18.557119853682824C85.88823544921875,20.095932853682825,86.28912444921875,19.962698853682824,85.68740544921874,21.033245853682825C83.41441204921875,21.568517853682824,79.26930144921874,21.903551853682824,77.93197014921876,21.100248853682825L76.92936004921874,21.368276853682822C78.53368994921875,24.446683853682824,78.73452474921875,27.659099853682825,80.87363624921875,26.520769853682822C82.27791544921875,26.052501853682823,83.81530184921876,25.918489853682825,85.15262884921876,25.249202853682824C86.22218144921875,30.535709853682825,79.40319254921874,47.734581853682826,75.52508544921875,51.615505853682826C79.13541464921875,50.34393685368283,85.42041204921875,45.793727853682825,86.55690744921876,39.70391885368282C86.48996444921875,43.986881853682824,86.69079444921874,51.28124685368282,85.88824444921875,55.095943853682826C85.62047144921875,56.16649685368282,84.95257754921874,58.70962985368282,85.15263744921874,59.646938853682826C85.82130144921875,61.72179785368282,88.62908044921875,62.39031285368282,89.23079944921875,63.461639853682826C91.43685044921875,61.72179785368282,91.10291244921875,59.91496285368282,91.57074544921875,57.57285385368282C91.83852044921875,56.100261853682824,91.57074544921875,54.02617285368282,91.57074544921875,51.88430785368282C91.57074544921875,47.53432885368282,91.57074544921875,37.09455485368282,91.83852044921875,33.68189685368282C93.37590644921875,35.88999185368282,94.57934544921875,40.306976853682826,96.05056944921876,42.71609585368282C97.52178944921874,42.31483085368282,99.05917744921875,39.37044185368282,99.32695244921875,37.696842853682824C99.33785044921875,37.71475985368282,99.35030744921875,37.73345585368283,99.36119644921875,37.75215585368282C99.35886044921875,37.475559853682824,99.34095744921875,37.181045853682825,99.30904044921874,36.87172385368282L99.30904944921875,36.870166853682825ZM87.30498144921876,58.30447085368282L87.00529044921875,58.17747585368282C86.99984544921875,58.096447853682825,87.01385244921875,58.06371685368283,87.01385244921875,58.06371685368283C87.15475144921875,57.73024385368282,87.32678044921875,57.13575385368282,87.48324344921875,57.04459385368283L87.56730944921875,56.844348853682824C88.02424444921876,57.155227853682824,87.97364544921875,57.36949585368282,88.20250544921875,57.662456853682826C87.80239444921875,58.239025853682826,87.74479244921875,58.09721785368282,87.30420244921875,58.30368885368282L87.30498144921876,58.30447085368282ZM90.56813644921876,3.2313155536828235C90.36730744921874,3.3653287536828236,90.50119444921874,3.2983223536828237,90.10030244921874,3.6325759536828235C90.03336044921875,3.3645495536828234,90.03336044921875,3.2983223536828237,89.96641644921876,3.2313155536828235C89.96641644921876,2.4950224536828234,89.96641644921876,1.9597493536828234,90.10030244921874,1.4244758536828235C90.36807544921875,1.5584890536828235,90.50119444921874,1.7587295536828236,90.83591044921874,1.9597493536828234C90.83591044921874,2.4950224536828234,90.83591044921874,2.8962825536828234,90.56813644921876,3.2313155536828235Z" fill="#B27534" fill-opacity="1" style="mix-blend-mode:passthrough"/></g></g></g><g><path d="M62.18588103691101,16.840550186950683C56.78128303691101,7.7798604869506836,46.91788003691101,0.3413538869506836,29.89297903691101,2.6406137069506834C12.86885403691101,4.939873886950684,6.653140736911011,14.947225186950684,2.8700014369110107,25.631656186950682C-0.9131374630889892,36.315303186950686,4.221344936911011,43.415656186950685,4.221344936911011,43.415656186950685L4.782588436911011,43.56837018695068C4.229129036911011,46.441863186950684,5.632626736911011,49.92074918695069,9.11918663691101,49.97451318695068C9.31534793691101,49.977629186950686,9.50372863691101,49.97061818695068,9.68977143691101,49.960490186950686L8.172622936911011,59.14428618695069C8.172622936911011,59.14428618695069,8.61243273691101,60.185221186950685,13.814638036911012,59.98264618695068C19.01684403691101,59.780066186950684,29.15036303691101,64.17523518695069,29.15036303691101,64.17523518695069L31.109656036911012,64.51338118695068C31.109656036911012,64.51338118695068,32.25783203691101,64.17523518695069,37.46003603691101,62.146338186950686C42.66223803691101,60.117438186950686,53.94393403691101,60.59116218695068,53.94393403691101,60.59116218695068L53.88009903691101,56.922934186950684L54.68732703691101,57.14266118695068C60.29430603691101,55.249331186950684,65.090953036911,45.511561186950686,66.915587036911,39.49344118695068C68.73943203691101,33.47531818695069,67.59125403691101,25.902016186950682,62.186663036911014,16.840551186950684L62.18588103691101,16.840550186950683Z" fill="#FCF9F2" fill-opacity="1" style="mix-blend-mode:passthrough"/></g><g><g><path d="M9.81106778999939,51.07466918707276C9.53161358999939,51.07466918707276,9.247489189999389,51.060644187072754,8.95791558999939,51.03259718707275C5.426985989999389,50.688995187072756,3.9464245899993897,49.032529787072754,3.3260207799993897,47.703306187072755C2.2058693199993895,45.30197858707275,3.1353069199993895,42.50250768707275,4.37922788999939,40.682423587072755C5.04711528999939,39.70537376707276,6.1018790899993895,39.14283028207275,7.35047078999939,39.09764085967275C8.27990838999939,39.063358243072756,9.28407498999939,39.31891806707275,10.177705089999389,39.81601357707275C10.31315068999939,39.89081096707275,10.66888978999939,39.94457459707275,10.98337438999939,39.992101367072756C12.17514018999939,40.17208388707275,14.16868238999939,40.47283318707275,15.39781238999939,43.12738418707276C16.24318238999939,44.95292238707275,16.07114938999939,47.07142118707275,14.94866238999939,48.65542598707275C13.84252238999939,50.216058187072754,11.999993989999389,51.073893187072755,9.81028818999939,51.073893187072755L9.81106778999939,51.07466918707276ZM6.83204058999939,42.362257687072756C5.86601658999939,43.775629487072756,5.53907918999939,45.41651058707275,6.018588289999389,46.44498438707275C6.54947328999939,47.581760387072755,8.06584238999939,47.957303987072756,9.24515368999939,48.072622287072754C10.73817038999939,48.21832178707275,11.902691589999389,47.81394478707276,12.52543138999939,46.93584538707275C13.04074638999939,46.20890138707276,13.10691338999939,45.25289158707275,12.70213298999939,44.37946798707276C12.14478178999939,43.17646598707275,11.54150368999939,43.08530738707275,10.54045028999939,42.934152887072756C9.977650889999389,42.84922388707275,9.338564189999389,42.752610187072754,8.73450778999939,42.416798587072755C8.15069078999939,42.091896087072755,7.1745469899993894,41.860487187072756,6.83126278999939,42.362257687072756L6.83204058999939,42.362257687072756Z" fill="#B27534" fill-opacity="1" style="mix-blend-mode:passthrough"/></g><g><path d="M54.53307392348633,52.88307002398682C52.01720812348633,52.88307002398682,49.91235232348633,51.85615702398682,48.74160015348633,50.052431123986814C47.67593798348633,48.40998982398682,47.53815549348633,46.353047323986814,48.37340730348633,44.54854202398682C49.60253642348633,41.893211123986816,51.59685752348633,41.59246192398682,52.78784992348633,41.41325926398682C53.102330723486325,41.36573249398682,53.45807072348633,41.31197124398682,53.59351632348633,41.23717147398682C54.487144923486326,40.740075913986814,55.49209212348633,40.48451845698682,56.42075152348633,40.51880107448682C57.669341123486326,40.56399287998681,58.72410832348633,41.126534043986815,59.39199332348633,42.10358632398682C60.839858323486325,44.22208472398682,60.997881323486325,47.351913423986815,59.77653532348633,49.71428492398682C58.75290632348633,51.69331802398682,56.89403532348633,52.848013023986816,54.675527123486326,52.88229102398682C54.62804362348633,52.88229102398682,54.57978202348633,52.88307002398682,54.53229472348633,52.88307002398682L54.53307392348633,52.88307002398682ZM56.25183482348633,43.49046542398682C55.84861182348633,43.49046542398682,55.37610772348633,43.64785432398681,55.03671692348633,43.836406423986816C54.43188002348633,44.172998223986816,53.793576223486326,44.268831723986814,53.23077252348633,44.35376022398682C52.23050022348633,44.50491522398681,51.62644292348633,44.59607362398682,51.06908872348633,45.79907512398682C50.666645023486325,46.66938062398682,50.72735972348633,47.653442823986815,51.23255562348633,48.43180802398682C51.866193723486326,49.40730092398682,53.07119182348633,49.932445523986814,54.629597623486326,49.90751072398682C55.76687382348633,49.89037232398682,56.60990712348633,49.364448523986816,57.136901823486326,48.34610462398682C57.85460632348633,46.95844502398682,57.769761123486326,44.99655582398682,56.93918422348633,43.781865323986814C56.79595282348633,43.57149482398682,56.54141142348633,43.49046542398682,56.25105572348633,43.49046542398682L56.25183482348633,43.49046542398682Z" fill="#B27534" fill-opacity="1" style="mix-blend-mode:passthrough"/></g><g><path d="M31.109809002746584,65.99999665924072C31.02574100274658,65.99999665924072,30.94089000274658,65.99298165924073,30.857600002746583,65.97817865924073L28.89830700274658,65.64002665924072C28.702144002746582,65.60652465924072,28.515319002746583,65.53328465924072,28.347960002746582,65.42576265924072C28.28568700274658,65.38602565924072,21.98123300274658,61.378876659240724,17.313804602746583,61.56041965924072C12.022079502746582,61.766895659240724,10.165539902746582,61.27213465924072,9.971711902746582,61.214478659240726C9.376217702746581,61.03917165924072,8.951977132746581,60.51168765924072,8.908384982746583,59.892269659240725L8.212474038846581,50.01113985924072C8.154870852746582,49.192256569240726,8.771382272746582,48.48089590324072,9.590283602746583,48.42323986064072C10.409185602746582,48.364803910240724,11.119108002746582,48.98266613924072,11.176711302746583,49.80232925924072L11.789330702746582,58.50383065924072C12.745234502746582,58.60200465924072,14.452318202746582,58.695502659240724,17.197817802746584,58.58876065924072C22.25679400274658,58.39163395924072,28.34173100274658,61.93207365924072,29.689961002746582,62.75875265924072L30.99849200274658,62.98470465924072C31.60177100274658,62.77978965924072,33.21466400274658,62.205560659240724,36.91996100274658,60.760245659240724C41.204404002746585,59.08975565924072,49.06959600274658,59.012620659240724,52.430829002746584,59.06404265924073L52.30783600274658,52.03068975924072C52.29382400274658,51.20947165924072,52.94692300274658,50.532393659240725,53.76738100274658,50.51758935924072C53.77594500274658,50.51758935924072,53.78528300274658,50.51758935924072,53.793851002746585,50.51758935924072C54.60263200274658,50.51758935924072,55.26507300274658,51.166619259240726,55.27908400274658,51.978488159240726L55.42853600274658,60.56467865924073C55.43554800274658,60.97451065924072,55.273633002746585,61.368758659240726,54.98095000274658,61.654702659240726C54.68826000274658,61.940647659240724,54.29048600274658,62.09336365924072,53.88103200274658,62.07621865924072C53.77127600274658,62.07154465924072,42.84843900274658,61.639899659240726,37.99885700274658,63.53088365924072C32.79743100274658,65.55900265924072,31.57764100274658,65.92441665924072,31.528600002746582,65.93844665924073C31.392375002746583,65.97896265924072,31.250703002746583,65.99922265924073,31.10902900274658,65.99922265924073L31.109809002746584,65.99999665924072Z" fill="#B27534" fill-opacity="1" style="mix-blend-mode:passthrough"/></g><g><path d="M53.620016286010745,43.551240845153806C52.811231286010745,43.551240845153806,52.148790286010744,42.902209845153806,52.13477928601074,42.09034184515381L52.004011286010744,34.60664554515381C47.155206286010745,33.38494514515381,42.401376286010745,34.21161794515381,39.17869928601074,35.16451404515381C35.368313286010746,36.29115864515381,32.78239228601075,37.84243914515381,32.756704286010745,37.85802264515381C32.12229128601074,38.242140745153804,31.308059286010742,38.09722134515381,30.843343286010743,37.53623484515381C30.69388228601074,37.39598984515381,29.35343728601074,36.24752664515381,23.509034286010742,34.130588545153806C18.27413528601074,32.23414734515381,13.415993186010741,32.90421314515381,11.634961086010742,33.330406445153805C11.533765786010742,34.831819545153806,11.357063286010742,37.925810845153805,11.243414186010742,39.98197784515381C11.198265586010741,40.80242184515381,10.496127086010741,41.429632845153805,9.678004186010742,41.38522084515381C8.858324226010742,41.34002884515381,8.230914995010743,40.638796845153806,8.276063107910742,39.81835934515381C8.689405856010742,32.30661224515381,8.750123386010742,32.061181345153805,8.791379686010742,31.898340245153808C8.866886916010742,31.59447374515381,9.070833506010743,31.172175645153807,9.611838186010742,30.884670435153808C10.783365486010743,30.260573805153808,17.487928386010744,28.786430945153807,24.520206286010744,31.33423694515381C28.795309286010742,32.88317964515381,31.00758928601074,34.01995324515381,32.14798128601075,34.79831934515381C33.30471828601074,34.19292354515381,35.46484228601074,33.17068454515381,38.24926528601074,32.33855484515381C43.79319928601074,30.68286961515381,49.20947028601074,30.58547639515381,53.911924286010745,32.056504445153806C54.522985286010744,32.24739594515381,54.94333428601074,32.809159745153806,54.95423328601074,33.44961784515381L55.10368928601074,42.03814484515381C55.117700286010745,42.85936384515381,54.46459728601074,43.53644184515381,53.64414428601074,43.55124484515381C53.63558428601074,43.55124484515381,53.62624528601074,43.55124484515381,53.61767728601074,43.55124484515381L53.620016286010745,43.551240845153806ZM30.763164286010742,37.42870994515381C30.763164286010742,37.42870994515381,30.763164286010742,37.429490045153806,30.76394128601074,37.43026734515381C30.76394128601074,37.43026734515381,30.76394128601074,37.42948814515381,30.763164286010742,37.42870994515381ZM30.76160828601074,37.42559244515381C30.76160828601074,37.42559244515381,30.762390286010742,37.42715074515381,30.763164286010742,37.42793084515381C30.763164286010742,37.42793084515381,30.76238228601074,37.42637254515381,30.76160828601074,37.42559244515381Z" fill="#B27534" fill-opacity="1" style="mix-blend-mode:passthrough"/></g><g><path d="M31.245289901000977,65.32447486090088C31.225050101000978,65.32447486090088,31.204812801000976,65.32447486090088,31.183793701000976,65.32291886090087C30.364113811000976,65.28941586090087,29.725805428000978,64.59753286090088,29.759279448100976,63.77708686090088L30.840511101000978,37.06718436090088C30.873982801000977,36.24674380090088,31.566002601000978,35.607065528900876,32.384903201000974,35.64134814280088C33.204583401000974,35.67485085090088,33.84289170100098,36.36673289090088,33.809417701000974,37.18717346090088L32.72818610100098,63.89708186090088C32.695491101000975,64.69726686090088,32.03772450100098,65.32369686090088,31.244510601000975,65.32369686090088L31.245289901000977,65.32447486090088Z" fill="#B27534" fill-opacity="1" style="mix-blend-mode:passthrough"/></g><g><path d="M54.686527,58.63003664605713C54.06612,58.63003664605713,53.487751,58.23812564605713,53.279133,57.61792864605713C53.016804,56.83956664605713,53.434814,55.99575164605713,54.211681,55.73317464605713C56.372585,55.00389564605713,58.705521,52.702294646057126,60.957497,49.07926664605713C62.789135,46.133313646057125,64.484535,42.387959646057126,65.492599,39.06178364605713C67.329674,33.00080964605713,65.787613,25.781243646057128,60.909237,17.603327646057128C56.464439,10.151575046057129,47.509449,1.761731146057129,30.090666,4.114752746057128C13.454199,6.361032946057129,7.8487692,16.02244264605713,4.2703562,26.12796664605713C0.78768873,35.96234264605713,5.3780527,42.47834464605713,5.4247584,42.54379364605713C5.9058247,43.20918764605713,5.7571449,44.13870364605713,5.0923719,44.62022464605713C4.427598,45.10173164605713,3.4989386,44.95291564605713,3.017873,44.28752564605713C2.9587126,44.20571264605713,1.5606639,42.24771964605713,0.68960774,38.90518264605713C-0.10282755,35.86573164605713,-0.61035979,31.00931664605713,1.4695883,25.13455464605713C2.9610481,20.922493646057127,5.5064936,14.764122646057128,10.370085,9.93575664605713C15.201758,5.1385526460571285,21.523338,2.270516846057129,29.694452,1.166467186057129C48.719124,-1.4023771539428709,58.557621,7.8577723460571285,63.461693,16.07854164605713C66.159706,20.60226364605713,67.92907,24.95768864605713,68.71994,29.02405064605713C69.477341,32.91978164605713,69.348915,36.58800564605713,68.33696,39.92508764605713C67.257286,43.48656564605713,65.44278,47.49604464605713,63.481155,50.65002964605713C60.822834,54.92676264605713,58.023628,57.584431646057126,55.162136,58.55135464605713C55.004894,58.60433264605713,54.84454,58.63004764605713,54.687298,58.63004764605713L54.686527,58.63003664605713Z" fill="#B27534" fill-opacity="1" style="mix-blend-mode:passthrough"/></g><g><path d="M30.153747543872072,26.81049654290576C28.53229194887207,26.946067200905762,28.05433869387207,30.153032590905763,29.410353783872072,30.96879909090576C30.87067744387207,31.84767579090576,31.63976054387207,30.90101339090576,31.84214854387207,30.123424790905762C32.04453704387207,29.34583619090576,32.55829934387207,26.60947551090576,30.15296824387207,26.80971663590576L30.153747543872072,26.81049654290576Z" fill="#B27534" fill-opacity="1" style="mix-blend-mode:passthrough"/></g><g><path d="M32.214981273896484,9.318676704187013C32.67425078389648,9.981730004187012,33.884701043896484,9.400487304187012,34.18283634389648,8.609654014187011C34.480971343896485,7.818820730187012,33.602132843896484,7.668445542187012,33.218368143896484,7.773630718187012C32.83460342389648,7.878815904187012,31.533858243896486,8.334615584187011,32.214981273896484,9.318676704187013Z" fill="#B27534" fill-opacity="1" style="mix-blend-mode:passthrough"/></g><g><path d="M13.008197586828613,17.53320694171631C12.486654016828613,18.148731831716308,13.362380566828612,19.168634871716307,14.202299086828614,19.25200297171631C15.042217486828614,19.335371771716307,14.960483986828613,18.447144871716308,14.759650586828613,18.10354113171631C14.558817186828612,17.75993752171631,13.781950826828613,16.620047811716308,13.008197586828613,17.53398564171631L13.008197586828613,17.53320694171631Z" fill="#B27534" fill-opacity="1" style="mix-blend-mode:passthrough"/></g><g><path d="M8.191365122834863,28.276848855710448C8.081607105734863,29.07625341571045,9.366784615734863,29.46582651571045,10.120299315734863,29.08482291571045C10.873814115734863,28.70381941571045,10.328138315734863,27.998693105710448,9.973955515734863,27.81637322571045C9.619772315734863,27.634053335710448,8.353277385734863,27.09098845571045,8.190586532934864,28.276848855710448L8.191365122834863,28.276848855710448Z" fill="#B27534" fill-opacity="1" style="mix-blend-mode:passthrough"/></g><g><path d="M50.69868355770508,19.69377764234619C51.27238142770508,20.260217142346193,52.35439219770508,19.463929842346193,52.50073619770508,18.63180130234619C52.64785959770508,17.79967270834619,51.755784197705076,17.814476676346192,51.398490397705075,17.989005811346193C51.04119187770508,18.163534942346192,49.84709268770508,18.85307848234619,50.69790911770508,19.69377764234619L50.69868355770508,19.69377764234619Z" fill="#B27534" fill-opacity="1" style="mix-blend-mode:passthrough"/></g><g><path d="M59.55090724959961,31.613156706806738C58.74679426859961,31.550825975406738,58.43387119959961,32.85745302940674,58.85810827959961,33.58829232940674C59.28235011959961,34.319131829406736,59.95413003959961,33.73243472940674,60.11448523959961,33.367795029406736C60.27561953959961,33.00315522940674,60.74345273959961,31.705877646406737,59.55090724959961,31.613156706806738Z" fill="#B27534" fill-opacity="1" style="mix-blend-mode:passthrough"/></g><g><path d="M35.825264260107424,26.907894737330565C37.44671966010742,27.043465386330567,37.70827106010742,30.055644226330568,36.36782576010742,31.108271126330568C35.396351960107424,31.871055626330566,34.13841900010742,31.040485826330567,33.93603078010742,30.262897226330566C33.73364014910742,29.485308626330568,33.42071471010742,26.706876116330566,35.82604336010742,26.907894737330565L35.825264260107424,26.907894737330565Z" fill="#B27534" fill-opacity="1" style="mix-blend-mode:passthrough"/></g></g></g></svg>