<svg xmlns="http://www.w3.org/2000/svg" xmlns:xlink="http://www.w3.org/1999/xlink" fill="none" version="1.1" width="56.29833984375" height="69.919921875" viewBox="0 0 56.29833984375 69.919921875"><g><path d="M14.573769,32.089844L34.943172,61.772961Q37.169678,65.017517,41.0383,65.737381Q44.906921,66.457253,48.151474,64.230743Q51.39603,62.004242,52.115902,58.13562Q52.835766,54.266994,50.609261,51.022442L21.186789,8.1468287Q18.960285,4.902276,15.091661,4.1824074Q11.223039,3.4625387,7.9784861,5.6890435Q4.8399086,7.8428259,4.0637832,11.533203L-0.00015211964,11.533203Q0.036675934,11.293664,0.081566811,11.052418Q1.1045387,5.5549011,5.7152195,2.3909197Q10.3259,-0.7730608,15.823416,0.24991035Q21.320934,1.2728825,24.484913,5.8835611L53.907387,48.759174Q57.071373,53.369862,56.048401,58.867374Q55.025429,64.364883,50.414742,67.52887Q45.804058,70.692856,40.306549,69.669876Q34.809032,68.646912,31.645046,64.036224L11.275645,34.353111L14.573769,32.089844Z" fill-rule="evenodd" fill="#855E50" fill-opacity="1"/></g></svg>